<?xml version="1.0" encoding="UTF-8"?>
<svg width="145px" height="75px" viewBox="0 0 145 75" version="1.1" xmlns="http://www.w3.org/2000/svg" xmlns:xlink="http://www.w3.org/1999/xlink">
    <title>logo</title>
    <g id="Symbols" stroke="none" stroke-width="1" fill="none" fill-rule="evenodd">
        <g id="nav/desktop/navbar" transform="translate(-88.000000, -37.000000)">
            <g id="logo" transform="translate(88.000000, 37.000000)">
                <path d="M16.6737213,38.113079 C19.3333333,38.113079 21.5837743,37.1934605 23.4761905,35.3031335 C25.3686067,33.4128065 26.2892416,31.1648501 26.2892416,28.5592643 C26.2892416,25.9025886 25.3686067,23.6035422 23.4761905,21.7643052 C21.6349206,19.9250681 19.3844797,19.0054496 16.6737213,19.0054496 C14.0141093,19.0054496 11.712522,19.9250681 9.8712522,21.7643052 C8.02998236,23.6546322 7.10934744,25.9025886 7.10934744,28.5592643 C7.10934744,31.2159401 8.02998236,33.4638965 9.8712522,35.3031335 C11.7636684,37.1934605 14.0141093,38.113079 16.6737213,38.113079 L16.6737213,38.113079 L16.6737213,38.113079 Z M3.47795414,57.1696185 C2.55731922,57.1696185 1.73897707,56.8119891 1.02292769,56.1478202 C0.306878307,55.4325613 0,54.6151226 0,53.6955041 L0,28.5081744 C0,23.9100817 1.6366843,19.976158 4.91005291,16.7574932 C8.13227513,13.5388283 12.0705467,11.903951 16.6737213,11.903951 C21.2768959,11.903951 25.2151675,13.5388283 28.4885362,16.8085831 C31.7619048,20.0783379 33.3985891,24.0122616 33.3985891,28.6103542 C33.3985891,33.2084469 31.7619048,37.1423706 28.4885362,40.4121253 C25.2151675,43.6818801 21.2768959,45.3167575 16.6737213,45.3167575 C12.4797178,45.3167575 9.25749559,44.346049 7.10934744,42.4046322 L7.10934744,53.6955041 C7.10934744,54.6151226 6.75132275,55.4325613 6.03527337,56.1478202 C5.31922399,56.863079 4.50088183,57.1696185 3.58024691,57.1696185 L3.47795414,57.1696185 L3.47795414,57.1696185 L3.47795414,57.1696185 Z M52.7319224,11.903951 C53.7037037,11.903951 54.5220459,12.2615804 55.2380952,12.9257493 C55.9029982,13.6410082 56.2610229,14.4584469 56.2610229,15.4291553 L56.2610229,15.4802452 C56.2610229,16.4509537 55.9029982,17.2683924 55.2380952,17.9325613 C54.5220459,18.6478202 53.7037037,19.0054496 52.7319224,19.0054496 L51.0952381,19.0054496 C49.5097002,19.0054496 48.1798942,19.5674387 47.0546737,20.640327 C45.9805996,21.7132153 45.4179894,23.0926431 45.4179894,24.6764305 L45.4179894,41.7404632 C45.4179894,42.7111717 45.0599647,43.5286104 44.3439153,44.1927793 C43.627866,44.9080381 42.8095238,45.2145777 41.8888889,45.2145777 L41.7865961,45.2145777 C40.8659612,45.2145777 40.047619,44.8569482 39.3315697,44.1927793 C38.6155203,43.5286104 38.308642,42.7111717 38.308642,41.7404632 L38.308642,24.6764305 C38.3597884,21.1512262 39.5873016,18.136921 42.042328,15.633515 C44.5485009,13.130109 47.5661376,11.903951 51.0952381,11.903951 L52.7319224,11.903951 L52.7319224,11.903951 L52.7319224,11.903951 Z M64.1375661,11.903951 C65.1093474,11.903951 65.9276896,12.2615804 66.5925926,12.9257493 C67.308642,13.6410082 67.6155203,14.4584469 67.6155203,15.4291553 L67.6155203,41.7404632 C67.6155203,42.7111717 67.2574956,43.5286104 66.5925926,44.1927793 C65.9276896,44.9080381 65.1093474,45.2145777 64.1375661,45.2145777 L64.0864198,45.2145777 C63.1146384,45.2145777 62.2962963,44.8569482 61.5802469,44.1927793 C60.8641975,43.5286104 60.5061728,42.7111717 60.5061728,41.7404632 L60.5061728,15.4291553 C60.5061728,14.4584469 60.8641975,13.6410082 61.5802469,12.9257493 C62.2962963,12.2104905 63.1146384,11.903951 64.0864198,11.903951 L64.1375661,11.903951 L64.1375661,11.903951 L64.1375661,11.903951 Z M64.0864198,8.123297 C62.9611993,8.123297 61.989418,7.71457766 61.2222222,6.94822888 C60.4550265,6.18188011 60.0458554,5.21117166 60.0458554,4.08719346 C60.0458554,3.01430518 60.4550265,2.04359673 61.2222222,1.22615804 C61.989418,0.459809264 62.9611993,0.0510899183 64.0864198,0.0510899183 C65.1604938,0.0510899183 66.1322751,0.459809264 66.9506173,1.22615804 C67.7689594,1.99250681 68.1781305,2.96321526 68.1781305,4.08719346 C68.1781305,5.21117166 67.7689594,6.18188011 66.9506173,6.94822888 C66.1322751,7.76566757 65.1604938,8.123297 64.0864198,8.123297 L64.0864198,8.123297 L64.0864198,8.123297 Z M78.1005291,0.0510899183 C79.0723104,0.0510899183 79.8906526,0.408719346 80.5555556,1.07288828 C81.2716049,1.78814714 81.6296296,2.60558583 81.6296296,3.57629428 L81.6296296,23.6546322 L82.7037037,23.6546322 C85.1587302,23.6546322 87.3580247,22.8371935 89.1481481,21.2023161 C90.9382716,19.5674387 91.9611993,17.523842 92.2169312,15.1226158 C92.319224,14.2029973 92.7283951,13.4877384 93.3932981,12.8746594 C94.0582011,12.2615804 94.8253968,11.9550409 95.7460317,11.9550409 L95.8483245,11.9550409 C96.8712522,11.9550409 97.7407407,12.3637602 98.4056437,13.130109 C99.0194004,13.7942779 99.3262787,14.6117166 99.3262787,15.4802452 C99.3262787,15.5824251 99.3262787,15.7356948 99.2751323,15.8889646 C98.8148148,20.7425068 96.973545,24.369891 93.7001764,26.7711172 C95.3880071,27.8440054 96.973545,29.5810627 98.4056437,32.0844687 C99.8888889,34.6389646 100.656085,37.3978202 100.656085,40.4121253 L100.656085,41.893733 C100.656085,42.8644414 100.29806,43.6818801 99.633157,44.346049 C98.9171076,45.0613079 98.0987654,45.3678474 97.1781305,45.3678474 L97.0758377,45.3678474 C96.1552028,45.3678474 95.3368607,45.010218 94.6208113,44.346049 C93.9047619,43.6818801 93.5978836,42.8644414 93.5978836,41.893733 L93.5978836,40.2588556 C93.5978836,37.6532698 92.6261023,35.4053134 90.7848325,33.5149864 C88.8924162,31.6757493 86.6419753,30.7561308 83.9823633,30.7561308 L81.6296296,30.7561308 L81.6296296,41.7404632 C81.6296296,42.7111717 81.2716049,43.5286104 80.5555556,44.1927793 C79.8395062,44.9080381 79.021164,45.2145777 78.1005291,45.2145777 L77.9982363,45.2145777 C77.0776014,45.2145777 76.2592593,44.8569482 75.5432099,44.1927793 C74.8271605,43.5286104 74.5202822,42.7111717 74.5202822,41.7404632 L74.5202822,3.52520436 C74.5202822,2.55449591 74.8783069,1.73705722 75.5432099,1.02179837 C76.2592593,0.357629428 77.0776014,0 77.9982363,0 L78.1005291,0 L78.1005291,0.0510899183 L78.1005291,0.0510899183 Z M109.197531,0.0510899183 C110.169312,0.0510899183 110.987654,0.408719346 111.652557,1.07288828 C112.368607,1.78814714 112.726631,2.60558583 112.726631,3.57629428 L112.726631,23.6546322 L113.800705,23.6546322 C116.255732,23.6546322 118.455026,22.8371935 120.24515,21.2023161 C122.035273,19.5674387 123.058201,17.523842 123.313933,15.1226158 C123.416226,14.2029973 123.825397,13.4877384 124.4903,12.8746594 C125.155203,12.2615804 125.922399,11.9550409 126.843034,11.9550409 L126.945326,11.9550409 C127.968254,11.9550409 128.837743,12.3637602 129.502646,13.130109 C130.116402,13.7942779 130.42328,14.6117166 130.42328,15.4802452 C130.42328,15.5824251 130.42328,15.7356948 130.372134,15.8889646 C129.911817,20.7425068 128.070547,24.369891 124.797178,26.7711172 C126.485009,27.8440054 128.070547,29.5810627 129.502646,32.0844687 C130.985891,34.6389646 131.753086,37.3978202 131.753086,40.4121253 L131.753086,41.893733 C131.753086,42.8644414 131.395062,43.6818801 130.679012,44.346049 C129.962963,45.0613079 129.144621,45.3678474 128.223986,45.3678474 L128.121693,45.3678474 C127.201058,45.3678474 126.382716,45.010218 125.666667,44.346049 C124.950617,43.6818801 124.643739,42.8644414 124.643739,41.893733 L124.643739,40.2588556 C124.643739,37.6532698 123.671958,35.4053134 121.830688,33.5149864 C119.938272,31.6757493 117.687831,30.7561308 115.028219,30.7561308 L112.675485,30.7561308 L112.675485,41.7404632 C112.675485,42.7111717 112.31746,43.5286104 111.601411,44.1927793 C110.885362,44.9080381 110.067019,45.2145777 109.146384,45.2145777 L109.044092,45.2145777 C108.123457,45.2145777 107.305115,44.8569482 106.589065,44.1927793 C105.873016,43.5286104 105.566138,42.7111717 105.566138,41.7404632 L105.566138,3.52520436 C105.566138,2.55449591 105.924162,1.73705722 106.589065,1.02179837 C107.305115,0.357629428 108.123457,0 109.044092,0 L109.197531,0 L109.197531,0.0510899183 L109.197531,0.0510899183 Z M141.470899,0.0510899183 C142.442681,0.0510899183 143.261023,0.408719346 143.925926,1.07288828 C144.641975,1.78814714 144.948854,2.60558583 144.948854,3.57629428 L144.948854,41.7915531 C144.948854,42.7622616 144.590829,43.5797003 143.925926,44.2438692 C143.209877,44.9591281 142.391534,45.2656676 141.470899,45.2656676 L141.368607,45.2656676 C140.396825,45.2656676 139.578483,44.9080381 138.91358,44.2438692 C138.197531,43.5797003 137.839506,42.7622616 137.839506,41.7915531 L137.839506,3.57629428 C137.839506,2.60558583 138.197531,1.78814714 138.91358,1.07288828 C139.62963,0.408719346 140.447972,0.0510899183 141.368607,0.0510899183 L141.470899,0.0510899183 L141.470899,0.0510899183 L141.470899,0.0510899183 Z" id="Shape" fill="#DD3D1D"></path>
                <path d="M124.4903,73.5183924 C121.881834,73.5183924 119.784832,71.4237057 119.784832,68.8181199 C119.784832,66.2125341 121.881834,64.1178474 124.4903,64.1178474 C127.098765,64.1178474 129.195767,66.2125341 129.195767,68.8181199 C129.195767,71.4237057 127.098765,73.5183924 124.4903,73.5183924 L124.4903,73.5183924 Z" id="Path" fill="#008F78"></path>
                <path d="M107.663139,71.7302452 C106.077601,71.7302452 104.747795,70.4529973 104.747795,68.8181199 C104.747795,67.1832425 106.026455,65.9059946 107.663139,65.9059946 C109.299824,65.9059946 110.578483,67.1832425 110.578483,68.8181199 C110.578483,70.4529973 109.248677,71.7302452 107.663139,71.7302452 L107.663139,71.7302452 Z" id="Path" fill="#008F78"></path>
                <path d="M40.968254,71.7302452 C39.382716,71.7302452 38.0529101,70.4529973 38.0529101,68.8181199 C38.0529101,67.1832425 39.3315697,65.9059946 40.968254,65.9059946 C42.5537919,65.9059946 43.8835979,67.1832425 43.8835979,68.8181199 C43.8835979,70.4529973 42.5537919,71.7302452 40.968254,71.7302452 L40.968254,71.7302452 Z" id="Path" fill="#008F78"></path>
                <path d="M141.726631,72.0878747 C139.936508,72.0878747 138.453263,70.606267 138.453263,68.8181199 C138.453263,67.0299728 139.936508,65.5483651 141.726631,65.5483651 C143.516755,65.5483651 145,67.0299728 145,68.8181199 C145,70.606267 143.516755,72.0878747 141.726631,72.0878747 L141.726631,72.0878747 Z" id="Path" fill="#008F78"></path>
                <path d="M90.0687831,74.2847411 C87.0511464,74.2847411 84.6472663,71.8324251 84.6472663,68.8692098 C84.6472663,65.9059946 87.1022928,63.4536785 90.0687831,63.4536785 C93.0352734,63.4536785 95.4902998,65.9059946 95.4902998,68.8692098 C95.4902998,71.8324251 93.0864198,74.2847411 90.0687831,74.2847411 L90.0687831,74.2847411 Z" id="Path" fill="#008F78"></path>
                <path d="M22.6578483,75 C19.2310406,75 16.5202822,72.2411444 16.5202822,68.8692098 C16.5202822,65.4972752 19.2821869,62.7384196 22.6578483,62.7384196 C26.0335097,62.7384196 28.7954145,65.4972752 28.7954145,68.8692098 C28.7954145,72.2411444 26.0335097,75 22.6578483,75 L22.6578483,75 Z" id="Path" fill="#008F78"></path>
                <path d="M55.2892416,71.0149864 C54.1128748,71.0149864 53.0899471,70.0442779 53.0899471,68.8181199 C53.0899471,67.5919619 54.0617284,66.6212534 55.2892416,66.6212534 C56.4656085,66.6212534 57.4885362,67.5919619 57.4885362,68.8181199 C57.4885362,70.0442779 56.4656085,71.0149864 55.2892416,71.0149864 L55.2892416,71.0149864 Z" id="Path" fill="#008F78"></path>
                <path d="M71.042328,73.1607629 C68.638448,73.1607629 66.6948854,71.219346 66.6948854,68.8181199 C66.6948854,66.4168937 68.638448,64.4754768 71.042328,64.4754768 C73.4462081,64.4754768 75.3897707,66.4168937 75.3897707,68.8181199 C75.3897707,71.219346 73.4462081,73.1607629 71.042328,73.1607629 L71.042328,73.1607629 Z" id="Path" fill="#008F78"></path>
                <path d="M3.6313933,72.4455041 C1.6366843,72.4455041 0,70.8106267 0,68.8181199 C0,66.8256131 1.6366843,65.1907357 3.6313933,65.1907357 C5.62610229,65.1907357 7.2627866,66.8256131 7.2627866,68.8181199 C7.2627866,70.8106267 5.62610229,72.4455041 3.6313933,72.4455041 L3.6313933,72.4455041 Z" id="Path" fill="#008F78"></path>
            </g>
        </g>
    </g>
</svg>